# xmcd
#
# Track frame offsets:
#	187
#	16082
#	31917
#
# Disc length: 635 seconds
#
# Revision: 0
# Processed by: cddbd v1.5PL3 Copyright (c) Steve Scherf et al.
# Submitted via: dBpowerAMP V4.0
#
DISCID=14027903
DTITLE=Terry McBride and The Ride - Single
DYEAR=1994
DGENRE=Country
TTITLE0=Been There
TTITLE1=Been There
TTITLE2=Been There
EXTD=Promotional cd with 3 copies of same song
EXTT0=
EXTT1=
EXTT2=
PLAYORDER=
